#!OML:ASF \\sashay\E\basketball\basketball\Project 1\Capture day 1\Session 1\Subject.ASF
:FULLY-SPECIFIED
:DEGREES
574
root -1.5572 15.0809 -1.07234 178.695 -147.165 -184.094
lowerback 26.3337 0.543582 -3.65428
upperback 9.94035 -0.0596317 8.22478
thorax -3.43511 -0.44021 11.4077
lowerneck 14.1391 -22.554 -19.297
upperneck -19.8509 -30.2069 40.6454
head 2.21613 -17.7556 14.3105
rclavicle 1.03368e-014 0
rhumerus 51.9584 47.8021 -55.0593
rradius 75.9674
rwrist -32.526
rhand -17.3286 33.6689
rfingers 7.12502
rthumb 8.91826 3.87738
lclavicle 1.03368e-014 0
lhumerus -11.4544 7.60375 78.111
lradius 116.681
lwrist 44.721
lhand -24.9415 32.5276
lfingers 7.12502
lthumb 1.56805 62.5016
rfemur -36.7043 1.78209 20.112
rtibia 38.9511
rfoot -6.48615 7.44779
rtoes -49.9891
lfemur -24.2178 26.4961 -22.232
ltibia 67.0824
lfoot -8.21209 -10.9906
ltoes -3.4746
575
root -1.40985 15.1446 -1.06841 178.47 -144.889 -183.886
lowerback 26.1681 0.671878 -3.695
upperback 9.78072 0.0714217 7.85941
thorax -3.57187 -0.358428 10.9552
lowerneck 14.0543 -22.4902 -19.0507
upperneck -18.2252 -30.4079 39.4217
head 2.39522 -17.6369 13.7643
rclavicle -4.21423e-014 -6.83819e-014
rhumerus 54.4851 46.15 -53.5722
rradius 76.3051
rwrist -32.5953
rhand -18.6865 34.4572
rfingers 7.12502
rthumb 7.60779 4.614
lclavicle -4.21423e-014 -6.83819e-014
lhumerus -7.52902 7.68992 76.1927
lradius 116.539
lwrist 44.8765
lhand -22.7271 33.3363
lfingers 7.12502
lthumb 3.7066 63.2838
rfemur -36.082 1.46438 20.7818
rtibia 41.3106
rfoot -6.61282 5.09354
rtoes -51.1369
lfemur -23.6831 24.8341 -22.7582
ltibia 65.997
lfoot -6.9294 -11.3735
ltoes -2.40366
576
root -1.277 15.1984 -1.06443 178.198 -142.597 -183.769
lowerback 25.9924 0.815144 -3.79944
upperback 9.68347 0.202791 7.51121
thorax -3.62976 -0.285661 10.5635
lowerneck 14.0948 -22.3023 -19.1047
upperneck -16.6146 -30.5149 38.4729
head 2.6514 -17.5047 13.3876
rclavicle -4.05521e-014 -6.04305e-014
rhumerus 56.9 44.4129 -52.3337
rradius 76.6737
rwrist -33.0218
rhand -19.9383 35.2943
rfingers 7.12502
rthumb 6.39939 5.41101
lclavicle -4.05521e-014 -6.04305e-014
lhumerus -3.15116 8.39791 74.8929
lradius 115.485
lwrist 44.5172
lhand -24.1415 33.6018
lfingers 7.12502
lthumb 2.34068 63.5687
rfemur -35.3081 1.51025 21.4022
rtibia 43.8047
rfoot -6.67005 2.52456
rtoes -52.0978
lfemur -23.0211 23.4543 -22.9656
ltibia 64.9144
lfoot -5.36895 -12.4718
ltoes -0.75392
577
root -1.14326 15.2537 -1.05146 177.927 -140.299 -183.525
lowerback 25.616 0.945478 -4.07854
upperback 9.60356 0.284647 7.27046
thorax -3.55528 -0.248794 10.4132
lowerneck 14.1053 -22.0429 -19.6785
upperneck -14.9746 -30.6298 37.6268
head 3.04372 -17.3664 13.0812
rclavicle -1.51076e-014 4.13472e-014
rhumerus 59.3976 42.6269 -50.8941
rradius 77.09
rwrist -33.5769
rhand -20.8707 35.9565
rfingers 7.12502
rthumb 5.49923 6.04785
lclavicle -1.51076e-014 4.13472e-014
lhumerus 0.78746 8.92262 73.4692
lradius 114.981
lwrist 44.2994
lhand -26.8699 33.6323
lfingers 7.12502
lthumb -0.294446 63.6118
rfemur -34.6013 1.66891 21.73
rtibia 46.4023
rfoot -6.47057 0.256314
rtoes -51.3141
lfemur -22.4095 22.6584 -23.1307
ltibia 63.7892
lfoot -3.17435 -14.2851
ltoes 3.68441
578
root -1.00864 15.3081 -1.0276 177.652 -137.923 -183.08
lowerback 24.895 1.10955 -4.43501
upperback 9.61856 0.396481 7.01788
thorax -3.21165 -0.212456 10.275
lowerneck 14.0805 -21.7533 -20.3786
upperneck -13.6168 -30.6583 36.9838
head 3.41125 -17.2224 12.8852
rclavicle -1.74931e-014 3.65764e-014
rhumerus 62.0758 40.5384 -49.3092
rradius 77.3979
rwrist -34.0166
rhand -21.5745 36.7624
rfingers 7.12502
rthumb 4.81961 6.83725
lclavicle -1.74931e-014 3.65764e-014
lhumerus 4.78644 9.5006 72.1853
lradius 114.57
lwrist 44.3024
lhand -24.2683 34.4063
lfingers 7.12502
lthumb 2.2182 64.3745
rfemur -34.0886 1.88458 21.7616
rtibia 49.1111
rfoot -6.24025 -1.58552
rtoes -48.3541
lfemur -21.9842 21.8887 -23.5771
ltibia 62.6205
lfoot -0.951584 -16.0172
ltoes 6.3109
579
root -0.880614 15.3562 -0.998381 177.249 -135.469 -182.491
lowerback 23.9053 1.41255 -4.88582
upperback 9.75433 0.676886 6.74909
thorax -2.63507 -0.108382 10.1247
lowerneck 14.1846 -21.4488 -21.1327
upperneck -12.4307 -30.6565 36.5648
head 3.76394 -17.1078 12.804
rclavicle 2.62396e-014 -6.83819e-014
rhumerus 64.4629 38.0648 -48.0276
rradius 77.581
rwrist -34.4425
rhand -22.0624 37.6011
rfingers 7.12502
rthumb 4.3485 7.66575
lclavicle 2.62396e-014 -6.83819e-014
lhumerus 9.14697 10.0661 71.1318
lradius 113.917
lwrist 44.5319
lhand -24.5669 34.1953
lfingers 7.12502
lthumb 1.92982 64.1663
rfemur -33.5248 2.09397 21.6802
rtibia 51.84
rfoot -6.01942 -3.52222
rtoes -45.8015
lfemur -21.5954 21.3663 -24.1124
ltibia 61.4251
lfoot 1.43553 -18.1903
ltoes 8.11038
580
root -0.756638 15.3855 -0.967439 176.855 -133.058 -181.98
lowerback 23.5839 1.69456 -5.17876
upperback 9.27346 0.997643 6.347
thorax -3.07776 0.0996637 9.74846
lowerneck 15.0849 -20.9785 -21.5992
upperneck -10.906 -30.527 35.7047
head 3.90137 -16.9642 12.7256
rclavicle -8.18993e-014 -2.06736e-014
rhumerus 65.4151 36.1866 -48.055
rradius 77.6821
rwrist -34.7547
rhand -22.4787 38.366
rfingers 7.12502
rthumb 3.94648 8.42278
lclavicle -8.18993e-014 -2.06736e-014
lhumerus 12.5007 10.2238 69.7247
lradius 113.317
lwrist 44.948
lhand -24.402 34.6338
lfingers 7.12502
lthumb 2.08913 64.6033
rfemur -32.8283 2.33764 21.6042
rtibia 54.5492
rfoot -5.66728 -5.64662
rtoes -44.9705
lfemur -21.2261 19.8961 -24.649
ltibia 60.3757
lfoot 2.87125 -19.1226
ltoes 8.06761
581
root -0.629606 15.4234 -0.930801 176.817 -130.748 -181.861
lowerback 23.1752 1.88292 -5.08592
upperback 8.75277 1.28768 5.98676
thorax -3.5075 0.298627 9.19773
lowerneck 17.017 -20.2812 -21.3604
upperneck -10.3044 -29.8555 34.9704
head 3.37462 -16.7202 12.9637
rclavicle -6.16232e-014 3.97569e-014
rhumerus 66.1403 34.3512 -48.2231
rradius 77.7847
rwrist -35.0152
rhand -22.9208 39.4212
rfingers 7.12502
rthumb 3.51961 9.47051
lclavicle -6.16232e-014 3.97569e-014
lhumerus 15.9626 10.3309 68.4688
lradius 112.644
lwrist 45.4533
lhand -24.7093 35.2218
lfingers 7.12502
lthumb 1.7923 65.194
rfemur -32.0572 2.65838 21.6669
rtibia 57.0909
rfoot -5.43508 -7.68023
rtoes -44.1241
lfemur -20.9998 18.8923 -24.7975
ltibia 59.4701
lfoot 6.15309 -20.567
ltoes 16.0679
582
root -0.505701 15.4622 -0.887583 177.022 -128.413 -182.037
lowerback 22.6654 1.96262 -4.70877
upperback 8.30038 1.49131 5.58008
thorax -3.78112 0.445177 8.45053
lowerneck 17.5742 -19.7721 -21.7579
upperneck -8.99304 -29.5919 34.2192
head 3.49012 -16.5193 12.8898
rclavicle -7.15625e-015 -2.70347e-014
rhumerus 67.0131 32.464 -48.4158
rradius 77.8253
rwrist -35.1268
rhand -23.2151 40.3718
rfingers 7.12502
rthumb 3.23538 10.4166
lclavicle -7.15625e-015 -2.70347e-014
lhumerus 19.9366 10.2108 67.7947
lradius 111.009
lwrist 43.5258
lhand -26.1212 33.7711
lfingers 7.12502
lthumb 0.428651 63.7505
rfemur -31.2406 3.03207 21.8486
rtibia 59.4771
rfoot -4.9733 -9.46128
rtoes -44.0644
lfemur -20.9341 18.0836 -24.8157
ltibia 58.7056
lfoot 7.69597 -21.1664
ltoes 17.019
583
root -0.391218 15.4932 -0.842425 177.3 -125.924 -182.329
lowerback 22.2221 2.11915 -4.32421
upperback 7.83182 1.79478 5.21104
thorax -4.11156 0.638174 7.72383
lowerneck 18.4829 -19.0892 -22.6293
upperneck -7.78244 -29.2699 33.9398
head 3.68248 -16.3553 13.0886
rclavicle -1.82882e-014 2.38542e-014
rhumerus 67.8223 30.4307 -48.6456
rradius 77.6606
rwrist -35.1507
rhand -24.1676 40.3238
rfingers 7.12502
rthumb 2.31554 10.3567
lclavicle -1.82882e-014 2.38542e-014
lhumerus 23.4238 10.982 66.8827
lradius 110.845
lwrist 45.4099
lhand -23.6363 36.939
lfingers 7.12502
lthumb 2.82856 66.9
rfemur -30.3583 3.52739 22.0783
rtibia 61.6862
rfoot -4.20332 -10.9362
rtoes -44.2887
lfemur -20.9071 17.5131 -24.8195
ltibia 58.0065
lfoot 9.8615 -22.4338
ltoes 21.7572
584
root -0.281032 15.524 -0.795016 177.93 -123.392 -182.993
lowerback 21.7828 2.23415 -3.77017
upperback 7.38895 2.07787 4.91193
thorax -4.39707 0.812964 6.98764
lowerneck 18.7694 -18.507 -23.0477
upperneck -6.22572 -28.9189 33.0444
head 3.86556 -16.0925 12.9439
rclavicle 3.26007e-014 -3.65764e-014
rhumerus 68.723 28.4181 -48.9649
rradius 77.3521
rwrist -35.2099
rhand -25.245 40.1432
rfingers 7.12502
rthumb 1.27493 10.1673
lclavicle 3.26007e-014 -3.65764e-014
lhumerus 27.1616 11.3345 66.3587
lradius 109.353
lwrist 45.4291
lhand -25.9513 35.4235
lfingers 7.12502
lthumb 0.592745 65.4025
rfemur -29.4567 4.07331 22.4673
rtibia 63.7181
rfoot -3.72649 -12.2276
rtoes -43.995
lfemur -20.9304 16.913 -24.6951
ltibia 57.2989
lfoot 10.6871 -22.1842
ltoes 22.758
